<?xml version="1.0" standalone="no"?>
<!DOCTYPE svg PUBLIC "-//W3C//DTD SVG 20010904//EN"
 "http://www.w3.org/TR/2001/REC-SVG-20010904/DTD/svg10.dtd">
<svg version="1.0" xmlns="http://www.w3.org/2000/svg"
 width="3504.000000pt" height="3504.000000pt" viewBox="0 0 3504.000000 3504.000000"
 preserveAspectRatio="xMidYMid meet">
<metadata>
Created by potrace 1.11, written by Peter Selinger 2001-2013
</metadata>
<g transform="translate(0.000000,3504.000000) scale(0.100000,-0.100000)"
fill="#000000" stroke="none">
<path d="M19449 34806 c-2 -2 -80 -7 -174 -11 -271 -11 -445 -21 -690 -41 -27
-2 -77 -6 -110 -9 -33 -2 -60 -4 -60 -5 0 0 -22 -3 -50 -5 -104 -9 -229 -22
-290 -30 -22 -2 -67 -7 -100 -10 -33 -3 -76 -8 -95 -11 -19 -2 -57 -7 -85 -10
-27 -3 -66 -7 -85 -10 -19 -2 -57 -7 -85 -10 -27 -3 -61 -7 -75 -10 -28 -5
-81 -13 -125 -18 -81 -9 -143 -17 -168 -22 -34 -7 -54 -10 -202 -30 -22 -3
-47 -7 -55 -9 -8 -2 -35 -6 -60 -9 -25 -3 -54 -8 -65 -10 -11 -2 -45 -7 -75
-11 -30 -4 -66 -10 -80 -12 -14 -3 -36 -6 -50 -8 -14 -2 -43 -6 -65 -10 -55
-9 -80 -13 -155 -24 -101 -15 -133 -20 -160 -26 -14 -2 -41 -7 -60 -9 -19 -3
-44 -7 -55 -10 -11 -2 -40 -7 -65 -10 -25 -3 -58 -9 -75 -12 -16 -3 -39 -7
-50 -9 -11 -1 -51 -8 -90 -15 -38 -6 -82 -14 -97 -16 -45 -7 -81 -13 -108 -18
-14 -3 -41 -8 -60 -10 -30 -5 -112 -19 -225 -40 -16 -3 -70 -13 -120 -21 -102
-18 -127 -23 -170 -30 -16 -3 -113 -21 -215 -40 -279 -51 -279 -51 -290 -55
-3 -1 -8 -2 -12 -1 -4 0 -39 -6 -78 -14 -38 -8 -82 -17 -97 -20 -32 -5 -106
-21 -142 -29 -12 -3 -43 -8 -68 -11 -24 -2 -48 -7 -52 -9 -8 -5 -53 -15 -101
-22 -14 -2 -47 -8 -75 -14 -27 -6 -59 -12 -70 -14 -46 -9 -662 -137 -685 -143
-36 -9 -52 -12 -80 -17 -33 -6 -57 -11 -239 -52 -86 -19 -167 -37 -181 -40
-14 -2 -32 -7 -40 -10 -8 -4 -28 -8 -45 -9 -16 -2 -79 -16 -140 -30 -60 -15
-119 -29 -130 -31 -11 -2 -31 -6 -45 -9 -14 -4 -36 -8 -50 -11 -14 -3 -50 -12
-80 -20 -30 -8 -64 -16 -75 -18 -56 -10 -86 -17 -109 -26 -15 -5 -26 -8 -26
-5 0 2 -21 -2 -47 -10 -27 -8 -59 -16 -73 -19 -21 -4 -289 -67 -340 -81 -8 -2
-44 -10 -80 -19 -156 -36 -797 -199 -1070 -271 -74 -20 -151 -40 -170 -45 -19
-4 -93 -25 -165 -45 -71 -19 -139 -38 -150 -40 -74 -16 -768 -218 -975 -283
-47 -14 -89 -27 -95 -28 -5 0 -17 -4 -25 -7 -8 -3 -82 -27 -165 -52 -82 -26
-157 -49 -165 -52 -8 -3 -19 -7 -25 -9 -5 -1 -37 -12 -70 -24 -33 -11 -64 -22
-70 -23 -5 -1 -16 -6 -22 -10 -7 -5 -13 -6 -13 -3 0 3 -109 -33 -242 -78 -134
-46 -272 -93 -308 -105 -36 -13 -72 -25 -80 -28 -8 -3 -19 -7 -25 -9 -5 -1
-45 -16 -87 -32 -43 -17 -78 -28 -78 -26 0 3 -13 -2 -30 -11 -17 -9 -30 -13
-30 -9 0 4 -6 2 -12 -3 -7 -6 -67 -29 -133 -53 -66 -24 -138 -51 -160 -60 -70
-30 -170 -65 -177 -62 -5 1 -8 -3 -8 -10 0 -6 -3 -8 -6 -5 -4 3 -16 1 -28 -5
-11 -7 -26 -13 -32 -14 -6 -1 -29 -10 -50 -19 -63 -28 -76 -33 -142 -56 -34
-12 -65 -26 -68 -30 -3 -5 -16 -9 -30 -9 -13 0 -24 -4 -24 -10 0 -5 -7 -10
-16 -10 -8 0 -40 -11 -70 -25 -30 -14 -57 -25 -59 -25 -10 0 -301 -123 -313
-132 -6 -6 -12 -7 -12 -3 0 4 -6 3 -13 -3 -6 -5 -52 -26 -102 -47 -49 -20
-115 -48 -145 -62 -30 -14 -79 -36 -108 -49 -29 -13 -55 -24 -57 -24 -2 0 -39
-17 -82 -38 -43 -21 -82 -39 -88 -41 -5 -1 -53 -22 -105 -47 -52 -25 -135 -64
-185 -87 -109 -51 -826 -410 -910 -457 -33 -18 -114 -62 -180 -98 -130 -70
-179 -97 -237 -131 -21 -11 -55 -31 -75 -42 -93 -52 -140 -80 -323 -187 -107
-63 -271 -163 -365 -221 -93 -58 -178 -110 -187 -116 -35 -20 -223 -139 -228
-145 -7 -7 -42 -29 -60 -37 -8 -4 -17 -9 -20 -13 -3 -3 -32 -23 -65 -44 -121
-79 -290 -191 -302 -201 -6 -5 -48 -35 -93 -65 -45 -30 -119 -82 -165 -115
-46 -33 -93 -67 -105 -75 -12 -8 -28 -20 -34 -25 -6 -6 -45 -35 -86 -65 -92
-67 -286 -218 -360 -279 -101 -84 -255 -215 -290 -248 -19 -18 -68 -63 -109
-100 -154 -142 -384 -379 -477 -493 -16 -19 -31 -37 -34 -40 -6 -5 -116 -142
-132 -165 -4 -5 -18 -23 -31 -40 -62 -78 -164 -237 -195 -304 -36 -77 -75
-218 -89 -317 -10 -74 -11 -436 0 -529 10 -102 16 -146 23 -185 3 -19 7 -46 9
-60 4 -28 12 -73 20 -110 3 -14 7 -36 10 -50 8 -56 38 -184 76 -330 22 -85 42
-162 44 -170 2 -8 22 -76 44 -150 23 -74 43 -142 45 -150 2 -8 27 -84 55 -168
28 -85 51 -160 51 -168 0 -8 4 -14 8 -14 5 0 9 -6 9 -12 1 -12 128 -363 151
-418 6 -14 45 -113 87 -220 42 -107 84 -211 92 -230 8 -19 18 -44 23 -55 15
-39 28 -71 48 -115 11 -25 43 -101 72 -170 63 -147 230 -528 271 -617 16 -34
29 -64 29 -67 0 -3 17 -42 39 -88 32 -69 104 -228 294 -648 11 -25 21 -47 22
-50 3 -10 25 -61 43 -103 11 -23 32 -71 47 -107 15 -36 33 -78 40 -95 7 -16
43 -102 79 -190 37 -88 71 -169 75 -180 5 -11 16 -36 24 -55 36 -84 98 -234
142 -340 25 -63 53 -128 60 -145 12 -27 77 -184 182 -435 20 -47 42 -101 50
-120 9 -19 21 -48 28 -65 7 -16 29 -70 49 -120 20 -49 41 -99 46 -110 5 -11
21 -49 36 -85 14 -36 37 -89 50 -118 13 -29 24 -56 24 -61 0 -4 6 -21 14 -37
8 -16 57 -135 111 -264 53 -129 107 -260 120 -290 24 -55 47 -111 50 -120 1
-3 7 -17 13 -32 6 -15 27 -67 47 -115 20 -48 40 -97 45 -108 11 -24 110 -264
175 -425 25 -63 52 -128 60 -145 19 -44 125 -302 147 -360 18 -47 25 -65 48
-117 5 -13 31 -75 56 -138 25 -63 62 -153 81 -200 19 -47 41 -101 48 -120 8
-19 30 -75 50 -125 20 -49 104 -259 186 -465 83 -206 155 -386 161 -400 6 -14
12 -27 13 -30 1 -6 84 -217 98 -250 6 -14 11 -27 12 -30 2 -9 145 -374 155
-395 5 -11 32 -81 60 -155 28 -74 56 -146 62 -160 6 -14 12 -29 14 -35 1 -5
17 -46 34 -90 18 -44 43 -107 55 -140 44 -117 114 -300 126 -330 7 -16 13 -32
14 -35 1 -5 26 -72 95 -250 28 -75 109 -289 161 -430 15 -41 40 -106 54 -145
15 -38 30 -81 35 -95 4 -14 25 -68 45 -120 20 -52 37 -101 38 -107 0 -7 5 -13
10 -13 6 0 8 -3 4 -6 -3 -3 6 -36 20 -72 14 -37 29 -78 33 -92 4 -14 14 -38
21 -55 7 -16 13 -32 13 -35 1 -3 9 -25 18 -50 9 -25 30 -85 48 -135 17 -49 37
-106 45 -125 16 -43 27 -72 31 -85 2 -5 21 -59 42 -120 22 -60 42 -117 45
-125 2 -8 13 -37 23 -65 10 -27 19 -52 19 -55 0 -3 6 -18 12 -35 7 -16 30 -84
53 -150 22 -66 46 -131 52 -145 6 -14 11 -28 10 -33 -1 -4 5 -24 14 -45 13
-32 71 -198 78 -227 2 -5 6 -17 9 -25 4 -8 50 -145 103 -305 52 -159 98 -297
101 -305 3 -8 7 -19 9 -25 4 -17 105 -329 111 -345 3 -8 7 -19 8 -25 2 -5 20
-62 41 -125 21 -63 39 -120 40 -125 1 -6 16 -54 33 -108 17 -54 33 -106 35
-115 1 -9 8 -28 13 -42 6 -14 14 -41 18 -60 4 -19 10 -39 13 -45 4 -5 7 -14 8
-20 2 -5 28 -93 59 -195 31 -102 57 -189 59 -195 1 -5 5 -16 9 -22 5 -7 6 -13
3 -13 -3 0 -1 -12 5 -27 6 -16 12 -35 14 -43 12 -51 97 -339 106 -359 20 -48
-19 -2 -46 52 -22 47 -26 41 -11 -18 13 -55 109 -473 125 -545 5 -25 37 -164
71 -310 34 -146 64 -276 66 -290 3 -14 11 -50 19 -80 8 -30 16 -66 19 -80 7
-36 93 -406 109 -467 8 -29 11 -56 8 -61 -3 -5 -31 -18 -61 -29 -129 -48 -346
-136 -355 -144 -5 -5 -15 -9 -23 -9 -7 0 -32 -8 -55 -19 -38 -16 -74 -32 -87
-36 -3 -1 -23 -10 -45 -19 -22 -10 -92 -40 -155 -68 -63 -27 -121 -54 -127
-60 -7 -6 -13 -8 -13 -5 0 3 -44 -15 -97 -40 -54 -24 -123 -56 -153 -70 -207
-96 -622 -305 -825 -418 -131 -72 -170 -95 -268 -152 -59 -35 -111 -63 -116
-63 -5 0 -11 -4 -13 -9 -1 -4 -22 -19 -45 -32 -124 -71 -506 -322 -651 -428
-61 -45 -229 -171 -285 -214 -45 -35 -128 -103 -165 -135 -13 -11 -42 -35 -64
-54 -23 -18 -52 -42 -64 -53 -12 -11 -55 -49 -95 -85 -81 -71 -352 -340 -384
-380 -11 -14 -31 -39 -45 -56 -14 -17 -35 -44 -47 -60 -12 -16 -38 -51 -59
-79 -115 -152 -301 -495 -355 -655 -7 -19 -16 -41 -22 -47 -5 -7 -6 -13 -2
-13 4 0 3 -6 -3 -13 -6 -7 -13 -24 -16 -37 -2 -14 -12 -45 -21 -70 -30 -84
-89 -324 -100 -410 -2 -19 -8 -57 -13 -85 -5 -27 -10 -57 -10 -65 0 -8 -4 -53
-8 -100 -17 -191 -7 -476 22 -650 3 -19 8 -48 10 -63 2 -15 13 -65 25 -110 11
-45 22 -89 24 -98 27 -125 158 -437 238 -563 7 -11 28 -45 47 -75 41 -65 164
-230 210 -281 121 -134 262 -265 390 -363 30 -23 57 -44 60 -47 3 -3 19 -14
35 -26 17 -11 59 -40 95 -65 74 -51 218 -139 227 -139 4 0 14 -6 22 -14 22
-20 384 -201 421 -211 3 0 25 -10 50 -22 93 -43 413 -166 465 -178 6 -1 17 -5
25 -8 53 -20 333 -105 365 -111 11 -2 32 -9 48 -15 15 -6 27 -8 27 -5 0 2 8 0
19 -5 10 -6 31 -13 47 -16 16 -3 65 -14 109 -25 44 -12 91 -23 105 -26 13 -3
63 -14 110 -25 47 -11 97 -22 112 -24 15 -2 31 -6 35 -8 4 -3 30 -8 57 -11 27
-4 53 -9 57 -12 4 -2 20 -6 36 -9 57 -8 99 -16 143 -25 49 -11 86 -17 140 -26
19 -3 60 -9 90 -14 30 -5 71 -11 90 -14 19 -3 46 -8 60 -11 14 -3 44 -7 67
-10 23 -3 58 -7 77 -10 20 -3 52 -7 72 -10 19 -3 54 -7 77 -10 23 -3 53 -7 67
-10 24 -5 93 -13 170 -21 19 -2 51 -5 70 -8 19 -3 62 -7 95 -10 33 -4 76 -8
95 -11 19 -2 58 -7 85 -9 130 -12 174 -17 225 -22 30 -3 79 -8 108 -9 29 -2
83 -7 120 -10 157 -15 367 -31 517 -40 55 -3 218 -15 280 -20 22 -2 101 -6
175 -10 74 -3 162 -8 195 -10 322 -21 1806 -28 2245 -12 356 13 432 16 540 22
127 7 240 13 380 19 58 3 105 6 105 7 0 1 27 3 60 5 33 2 94 6 135 9 41 2 109
6 150 9 41 3 109 8 150 11 41 4 95 8 120 10 76 6 182 15 240 20 30 3 82 7 115
10 33 2 85 6 115 9 30 3 84 8 120 11 36 3 83 8 105 10 22 2 69 7 105 10 36 3
83 8 105 10 22 3 65 7 95 10 30 3 71 7 90 9 37 5 102 12 185 21 138 14 162 17
190 21 17 2 55 6 85 10 30 3 66 7 80 8 14 2 59 7 100 11 41 4 77 8 80 10 3 1
35 6 72 9 37 4 77 9 90 11 13 2 64 9 113 15 50 6 104 13 120 15 46 6 105 14
155 20 25 4 60 8 78 11 17 2 49 6 70 9 20 3 48 7 62 10 14 2 48 7 75 10 28 3
66 9 85 12 19 3 44 6 55 8 85 11 195 27 220 31 17 3 48 8 70 10 22 3 47 6 55
8 8 1 40 6 70 11 30 4 64 9 75 11 11 2 40 7 65 10 25 3 52 7 60 9 8 2 38 7 65
11 28 3 52 7 55 9 3 2 29 6 59 10 30 4 63 9 75 11 12 2 32 6 46 8 14 3 43 8
65 11 22 3 65 10 95 15 30 5 71 12 90 15 19 3 71 12 115 20 88 16 147 25 185
30 14 2 41 7 60 11 44 9 55 11 110 20 25 4 47 8 50 9 24 5 91 18 115 21 17 2
53 8 80 14 28 6 64 12 80 15 17 2 40 7 53 10 43 10 67 15 107 20 22 3 47 8 55
10 8 2 29 7 45 10 17 2 41 7 55 10 13 2 40 7 60 10 55 8 73 12 101 23 15 6 29
9 31 6 3 -2 45 5 94 15 49 11 103 21 119 24 25 5 95 19 315 64 14 3 30 6 35 7
11 3 73 16 95 20 8 2 33 6 55 10 22 4 54 12 70 17 17 4 44 11 60 14 17 2 84
16 150 30 66 14 131 28 145 31 14 3 33 7 42 10 10 3 28 7 40 10 38 7 61 12
108 24 25 6 56 13 70 15 14 2 36 6 50 10 14 3 36 8 50 11 14 3 39 9 55 14 17
4 48 12 70 16 51 9 52 9 103 23 24 7 55 14 70 16 15 2 40 8 55 14 15 6 31 10
35 10 4 -1 9 0 12 1 3 1 12 3 20 5 8 1 65 15 125 30 61 14 121 29 135 31 14 3
68 16 120 29 52 13 107 27 123 30 66 13 81 17 99 26 10 5 18 8 18 5 0 -2 20 2
44 9 24 8 47 11 50 8 3 -4 6 0 6 7 0 7 2 11 6 8 4 -5 25 -1 94 16 8 3 87 23
175 46 154 40 174 45 213 54 9 3 42 12 72 20 30 8 123 33 205 55 83 22 209 56
280 76 72 19 137 37 145 39 40 10 279 77 305 85 51 16 419 123 435 126 8 2 15
4 15 5 0 1 7 3 15 5 37 9 218 64 245 75 17 6 30 10 30 9 0 -1 16 3 35 9 19 6
96 29 170 52 342 105 743 234 1045 337 138 47 270 91 295 98 39 11 166 55 210
72 8 4 17 7 20 8 3 1 12 4 20 7 8 3 51 18 95 33 44 15 87 29 95 33 8 3 18 4
23 4 4 -1 7 2 7 8 0 6 3 9 8 8 10 -3 145 43 160 55 6 5 12 7 12 4 0 -3 17 1
38 10 20 8 82 31 137 51 55 19 111 39 125 45 14 5 30 11 35 13 15 4 476 179
515 196 19 8 37 15 40 16 10 1 229 86 265 102 11 5 67 28 125 50 58 23 125 50
150 61 25 10 124 51 220 90 96 39 189 77 205 84 17 8 56 25 88 39 32 14 60 26
63 26 3 0 25 9 50 20 44 20 95 42 104 45 3 1 21 8 40 17 19 8 89 39 155 68 66
29 148 66 183 81 34 16 64 29 67 29 2 0 37 15 77 34 194 91 271 126 274 126 2
0 50 22 106 49 338 161 402 191 409 191 5 0 9 5 9 12 0 6 3 9 6 5 3 -3 49 17
102 44 53 27 100 49 104 49 4 0 30 14 58 30 28 17 57 30 65 30 7 0 15 3 17 8
2 4 125 68 273 142 149 74 272 138 275 141 3 3 48 27 100 54 52 26 97 50 100
54 3 3 41 24 85 46 44 22 82 43 83 48 2 4 8 7 13 7 4 0 79 40 166 89 87 48
178 99 203 113 25 14 68 38 95 55 28 16 57 32 65 36 8 4 29 16 45 27 17 11 41
26 55 33 19 9 297 176 430 257 102 63 334 209 403 253 48 31 92 57 97 57 4 0
10 3 12 8 4 11 155 112 167 112 5 0 11 3 13 8 2 4 66 49 143 101 77 52 156
106 176 120 20 14 47 33 59 41 13 8 35 25 50 38 15 12 31 22 35 22 3 0 12 6
19 13 8 6 23 19 36 27 35 24 154 110 170 123 8 7 40 30 70 52 30 22 60 43 65
48 6 4 35 26 65 48 30 22 62 46 70 52 8 7 33 26 55 42 22 17 45 35 51 40 6 6
26 21 44 35 57 43 295 232 300 239 3 4 25 22 50 41 25 19 47 37 50 40 3 3 34
30 70 60 36 30 70 60 76 65 6 6 33 28 59 50 78 64 260 228 429 384 186 173
696 676 796 787 104 115 169 189 240 279 39 50 78 98 86 107 7 10 42 60 76
110 35 51 66 95 71 96 4 2 7 7 7 12 0 5 21 44 48 87 26 44 56 97 67 118 10 22
27 51 36 65 9 14 17 27 17 30 1 9 22 60 47 115 13 30 27 67 31 82 4 16 11 34
17 41 5 6 6 12 2 12 -4 0 -3 6 2 13 6 6 16 35 23 62 7 28 16 55 20 60 4 6 13
35 19 65 7 30 15 62 18 70 3 8 7 22 8 30 1 8 12 49 23 90 11 41 28 113 38 160
17 86 19 98 29 160 2 19 7 46 10 60 3 14 7 41 10 60 4 34 6 54 22 210 10 96
10 441 0 544 -8 91 -27 218 -42 286 -3 14 -8 36 -11 50 -3 14 -9 39 -14 55 -5
17 -19 62 -30 100 -70 235 -204 487 -363 685 -51 64 -246 263 -289 295 -7 6
-42 33 -78 61 -206 161 -428 282 -740 404 -58 23 -114 43 -125 46 -12 2 -48
13 -80 25 -33 11 -71 23 -85 25 -14 3 -54 13 -90 24 -58 16 -125 32 -185 45
-156 31 -233 46 -268 51 -23 3 -51 7 -62 9 -86 14 -159 23 -245 31 -36 3 -83
7 -105 10 -76 8 -217 17 -468 30 -65 3 -194 7 -286 8 -93 2 -174 6 -180 10 -6
4 -11 2 -11 -4 0 -7 -7 -8 -17 -3 -22 10 -54 10 -70 0 -6 -4 -14 -4 -17 1 -6
9 -59 8 -75 -3 -6 -3 -11 -2 -11 4 0 7 -8 7 -24 1 -13 -5 -26 -6 -29 -3 -9 9
-68 10 -73 1 -3 -5 -10 -5 -16 -2 -16 10 -69 11 -75 1 -2 -4 -9 -4 -15 -1 -16
10 -68 11 -68 1 0 -5 -5 -5 -11 -1 -9 5 -122 9 -139 4 -3 0 -66 -3 -140 -5
-178 -5 -413 -15 -475 -20 -27 -2 -90 -7 -140 -10 -112 -7 -195 -13 -260 -20
-27 -3 -86 -8 -130 -11 -85 -6 -130 -11 -130 -14 0 -1 -20 -3 -45 -4 -52 -4
-239 -24 -290 -32 -41 -6 -79 -11 -139 -19 -23 -3 -55 -7 -70 -9 -14 -3 -62
-10 -106 -16 -89 -13 -102 -15 -162 -25 -40 -6 -42 -5 -49 22 -3 15 -10 43
-15 62 -4 19 -6 38 -3 42 2 4 0 10 -6 14 -6 4 -8 10 -6 14 3 4 1 24 -4 43 -6
19 -12 48 -14 64 -2 16 -11 70 -21 119 -9 50 -18 97 -20 105 -2 8 -10 53 -19
100 -8 47 -18 99 -21 115 -4 17 -8 39 -10 50 -2 11 -6 34 -10 50 -3 17 -8 48
-11 70 -3 22 -9 56 -14 75 -5 19 -11 51 -14 70 -3 19 -10 58 -15 85 -6 28 -12
59 -14 70 -3 11 -10 50 -17 88 -10 56 -15 66 -26 56 -21 -18 -24 -12 -39 76
-3 17 -8 44 -12 60 -3 17 -7 39 -9 50 -2 19 -7 44 -19 105 -2 14 -7 36 -9 50
-3 14 -17 86 -31 160 -15 74 -28 149 -30 165 -2 17 -10 62 -18 100 -9 39 -18
90 -22 115 -3 25 -8 52 -10 60 -2 8 -6 31 -9 50 -3 19 -8 46 -11 60 -11 51
-19 96 -35 190 -9 52 -13 77 -25 145 -3 17 -10 53 -15 80 -11 56 -13 72 -35
200 -9 50 -20 110 -25 135 -5 25 -12 61 -15 80 -2 19 -7 49 -11 65 -8 42 -12
64 -18 110 -4 22 -9 54 -13 70 -3 17 -7 39 -8 50 -2 11 -12 72 -23 135 -12 63
-23 129 -26 145 -3 17 -7 41 -10 55 -2 14 -10 59 -16 100 -7 41 -14 84 -16 95
-11 59 -24 135 -29 170 -7 42 -11 65 -19 105 -3 14 -8 43 -11 65 -5 37 -7 51
-20 123 -3 15 -10 59 -15 97 -6 39 -12 77 -15 85 -2 8 -6 33 -10 55 -3 22 -8
54 -11 70 -7 38 -13 80 -20 130 -2 22 -7 47 -9 55 -3 8 -7 33 -10 55 -6 38
-31 192 -40 245 -3 14 -8 45 -11 70 -3 25 -9 63 -14 85 -4 22 -8 47 -9 55 0 8
-5 42 -11 75 -5 33 -13 83 -16 110 -3 28 -8 53 -10 56 -2 4 -8 38 -14 75 -18
132 -21 149 -26 176 -5 27 -11 64 -19 128 -2 19 -6 46 -9 60 -3 14 -7 41 -10
60 -3 19 -8 46 -10 60 -4 22 -11 72 -21 147 -2 12 -6 34 -9 50 -3 15 -8 46
-11 68 -3 23 -8 52 -10 65 -3 14 -8 49 -11 79 -3 30 -8 64 -10 75 -3 12 -7 36
-10 55 -2 19 -6 46 -8 60 -11 69 -17 109 -21 139 -2 18 -6 45 -9 60 -3 15 -8
47 -11 72 -3 25 -7 56 -10 70 -3 14 -7 43 -10 65 -3 22 -7 51 -9 65 -3 14 -7
45 -10 70 -3 25 -11 74 -16 110 -6 36 -12 76 -14 90 -13 99 -19 146 -31 220
-4 23 -13 87 -20 135 -4 26 -15 109 -21 160 -3 22 -8 56 -11 75 -10 67 -11 75
-17 125 -3 28 -9 66 -12 85 -3 19 -7 50 -9 70 -2 19 -6 49 -9 65 -3 17 -10 66
-16 111 -6 44 -12 91 -15 104 -2 12 -7 46 -9 74 -3 28 -8 67 -11 86 -8 55 -15
102 -20 150 -3 25 -7 61 -10 80 -3 19 -8 53 -11 75 -3 22 -7 54 -9 70 -3 17
-7 51 -10 76 -3 25 -7 54 -9 65 -2 10 -7 48 -11 84 -7 67 -10 85 -20 155 -3
22 -8 56 -10 75 -2 19 -6 51 -9 70 -2 19 -7 55 -10 80 -6 53 -14 121 -21 170
-2 19 -7 60 -11 90 -3 30 -8 63 -10 74 -2 10 -6 44 -9 75 -9 84 -20 176 -31
256 -3 22 -7 58 -9 80 -2 22 -4 40 -5 40 -2 0 -8 46 -15 118 -3 34 -8 73 -9
87 -5 31 -17 127 -21 160 -2 14 -6 59 -10 100 -4 41 -9 83 -11 94 -2 10 -6 44
-9 75 -4 31 -8 67 -11 81 -2 14 -6 55 -9 90 -3 36 -8 76 -10 90 -2 14 -7 50
-10 80 -10 97 -14 134 -21 183 -6 51 -7 59 -19 172 -3 39 -9 86 -11 105 -2 19
-6 58 -9 86 -2 29 -6 65 -9 80 -3 16 -8 61 -11 99 -4 39 -9 88 -11 110 -3 22
-7 63 -10 90 -2 28 -6 66 -9 85 -11 90 -17 148 -20 180 -2 34 -12 137 -20 210
-2 19 -6 60 -10 90 -3 30 -7 73 -10 95 -2 22 -7 67 -10 100 -6 73 -15 156 -21
210 -2 22 -6 60 -8 85 -3 25 -7 72 -10 105 -3 33 -8 87 -11 120 -3 33 -7 83
-10 110 -8 73 -15 141 -21 220 -10 139 -13 170 -15 170 0 0 -2 21 -4 47 -1 26
-5 71 -9 100 -3 29 -9 85 -12 123 -3 39 -7 86 -9 105 -12 121 -21 217 -30 335
-4 50 -9 104 -10 120 -2 17 -6 59 -9 95 -3 36 -8 92 -11 125 -3 33 -7 84 -10
113 -3 49 -12 149 -20 232 -8 84 -21 235 -30 340 -4 41 -9 78 -11 82 -3 4 0 8
7 8 8 0 8 4 2 13 -6 6 -10 19 -10 27 0 23 -14 190 -19 230 -3 19 -6 67 -9 105
-2 39 -6 95 -9 125 -11 110 -24 287 -31 415 -1 22 -5 94 -9 160 -4 66 -9 163
-11 215 -3 52 -8 158 -11 235 -4 77 -7 166 -8 197 -1 32 -3 58 -6 58 -3 0 -5
30 -6 68 -2 110 -22 400 -39 537 -2 22 -7 63 -10 90 -6 57 -17 145 -20 160 -1
6 -5 33 -9 60 -4 28 -10 61 -12 75 -3 14 -7 41 -10 60 -3 19 -8 42 -11 50 -3
8 -7 26 -9 40 -3 19 -49 204 -67 265 -84 289 -248 588 -426 779 -283 302 -603
485 -1136 649 -52 16 -390 102 -460 117 -22 5 -71 16 -110 24 -38 9 -83 19
-99 22 -16 2 -32 7 -36 9 -4 2 -20 6 -36 9 -16 3 -83 17 -149 31 -66 14 -129
28 -140 30 -11 2 -30 6 -41 8 -12 3 -39 8 -60 12 -22 3 -95 17 -164 30 -69 13
-138 26 -155 29 -16 3 -43 7 -60 10 -31 6 -64 12 -129 22 -21 3 -48 8 -60 10
-18 4 -139 22 -246 39 -19 2 -46 7 -60 9 -14 3 -45 7 -70 10 -106 13 -137 18
-170 23 -19 3 -48 6 -65 8 -38 4 -131 15 -170 20 -16 2 -55 7 -85 10 -30 4
-68 8 -85 10 -16 2 -61 6 -100 9 -38 4 -86 8 -105 11 -20 2 -67 6 -105 9 -39
3 -99 8 -135 11 -79 6 -200 14 -340 21 -58 3 -134 8 -170 10 -77 7 -1265 15
-1271 10z"/>
<path d="M6302 9910 c0 -14 2 -19 5 -12 2 6 2 18 0 25 -3 6 -5 1 -5 -13z"/>
</g>
</svg>
